<svg width="114" height="26" viewBox="0 0 114 26" fill="none" xmlns="http://www.w3.org/2000/svg">
<g filter="url(#filter0_d_6707_23926)">
<mask id="path-1-outside-1_6707_23926" maskUnits="userSpaceOnUse" x="2" y="-1" width="109" height="20" fill="black">
<rect fill="white" x="2" y="-1" width="109" height="20"/>
<path d="M11.485 11.14H7.555L6.925 13H4.24L8.05 2.47H11.02L14.83 13H12.115L11.485 11.14ZM10.825 9.16L9.52 5.305L8.23 9.16H10.825ZM18.5546 1.9V13H15.9896V1.9H18.5546ZM22.9784 1.9V13H20.4134V1.9H22.9784ZM27.5059 8.815C27.5059 7.945 27.6809 7.185 28.0309 6.535C28.3909 5.885 28.8859 5.385 29.5159 5.035C30.1559 4.685 30.8859 4.51 31.7059 4.51C32.7559 4.51 33.6309 4.785 34.3309 5.335C35.0409 5.885 35.5059 6.66 35.7259 7.66H32.9959C32.7659 7.02 32.3209 6.7 31.6609 6.7C31.1909 6.7 30.8159 6.885 30.5359 7.255C30.2559 7.615 30.1159 8.135 30.1159 8.815C30.1159 9.495 30.2559 10.02 30.5359 10.39C30.8159 10.75 31.1909 10.93 31.6609 10.93C32.3209 10.93 32.7659 10.61 32.9959 9.97H35.7259C35.5059 10.95 35.0409 11.72 34.3309 12.28C33.6209 12.84 32.7459 13.12 31.7059 13.12C30.8859 13.12 30.1559 12.945 29.5159 12.595C28.8859 12.245 28.3909 11.745 28.0309 11.095C27.6809 10.445 27.5059 9.685 27.5059 8.815ZM36.588 8.8C36.588 7.94 36.748 7.185 37.068 6.535C37.398 5.885 37.843 5.385 38.403 5.035C38.963 4.685 39.588 4.51 40.278 4.51C40.868 4.51 41.383 4.63 41.823 4.87C42.273 5.11 42.618 5.425 42.858 5.815V4.63H45.423V13H42.858V11.815C42.608 12.205 42.258 12.52 41.808 12.76C41.368 13 40.853 13.12 40.263 13.12C39.583 13.12 38.963 12.945 38.403 12.595C37.843 12.235 37.398 11.73 37.068 11.08C36.748 10.42 36.588 9.66 36.588 8.8ZM42.858 8.815C42.858 8.175 42.678 7.67 42.318 7.3C41.968 6.93 41.538 6.745 41.028 6.745C40.518 6.745 40.083 6.93 39.723 7.3C39.373 7.66 39.198 8.16 39.198 8.8C39.198 9.44 39.373 9.95 39.723 10.33C40.083 10.7 40.518 10.885 41.028 10.885C41.538 10.885 41.968 10.7 42.318 10.33C42.678 9.96 42.858 9.455 42.858 8.815ZM51.9436 10.825V13H50.6386C49.7086 13 48.9836 12.775 48.4636 12.325C47.9436 11.865 47.6836 11.12 47.6836 10.09V6.76H46.6636V4.63H47.6836V2.59H50.2486V4.63H51.9286V6.76H50.2486V10.12C50.2486 10.37 50.3086 10.55 50.4286 10.66C50.5486 10.77 50.7486 10.825 51.0286 10.825H51.9436ZM61.2624 8.68C61.2624 8.92 61.2474 9.17 61.2174 9.43H55.4124C55.4524 9.95 55.6174 10.35 55.9074 10.63C56.2074 10.9 56.5724 11.035 57.0024 11.035C57.6424 11.035 58.0874 10.765 58.3374 10.225H61.0674C60.9274 10.775 60.6724 11.27 60.3024 11.71C59.9424 12.15 59.4874 12.495 58.9374 12.745C58.3874 12.995 57.7724 13.12 57.0924 13.12C56.2724 13.12 55.5424 12.945 54.9024 12.595C54.2624 12.245 53.7624 11.745 53.4024 11.095C53.0424 10.445 52.8624 9.685 52.8624 8.815C52.8624 7.945 53.0374 7.185 53.3874 6.535C53.7474 5.885 54.2474 5.385 54.8874 5.035C55.5274 4.685 56.2624 4.51 57.0924 4.51C57.9024 4.51 58.6224 4.68 59.2524 5.02C59.8824 5.36 60.3724 5.845 60.7224 6.475C61.0824 7.105 61.2624 7.84 61.2624 8.68ZM58.6374 8.005C58.6374 7.565 58.4874 7.215 58.1874 6.955C57.8874 6.695 57.5124 6.565 57.0624 6.565C56.6324 6.565 56.2674 6.69 55.9674 6.94C55.6774 7.19 55.4974 7.545 55.4274 8.005H58.6374ZM65.7955 4.51C66.3855 4.51 66.9005 4.63 67.3405 4.87C67.7905 5.11 68.1355 5.425 68.3755 5.815V4.63H70.9405V12.985C70.9405 13.755 70.7855 14.45 70.4755 15.07C70.1755 15.7 69.7105 16.2 69.0805 16.57C68.4605 16.94 67.6855 17.125 66.7555 17.125C65.5155 17.125 64.5105 16.83 63.7405 16.24C62.9705 15.66 62.5305 14.87 62.4205 13.87H64.9555C65.0355 14.19 65.2255 14.44 65.5255 14.62C65.8255 14.81 66.1955 14.905 66.6355 14.905C67.1655 14.905 67.5855 14.75 67.8955 14.44C68.2155 14.14 68.3755 13.655 68.3755 12.985V11.8C68.1255 12.19 67.7805 12.51 67.3405 12.76C66.9005 13 66.3855 13.12 65.7955 13.12C65.1055 13.12 64.4805 12.945 63.9205 12.595C63.3605 12.235 62.9155 11.73 62.5855 11.08C62.2655 10.42 62.1055 9.66 62.1055 8.8C62.1055 7.94 62.2655 7.185 62.5855 6.535C62.9155 5.885 63.3605 5.385 63.9205 5.035C64.4805 4.685 65.1055 4.51 65.7955 4.51ZM68.3755 8.815C68.3755 8.175 68.1955 7.67 67.8355 7.3C67.4855 6.93 67.0555 6.745 66.5455 6.745C66.0355 6.745 65.6005 6.93 65.2405 7.3C64.8905 7.66 64.7155 8.16 64.7155 8.8C64.7155 9.44 64.8905 9.95 65.2405 10.33C65.6005 10.7 66.0355 10.885 66.5455 10.885C67.0555 10.885 67.4855 10.7 67.8355 10.33C68.1955 9.96 68.3755 9.455 68.3755 8.815ZM76.6062 13.12C75.7862 13.12 75.0462 12.945 74.3862 12.595C73.7362 12.245 73.2212 11.745 72.8412 11.095C72.4712 10.445 72.2862 9.685 72.2862 8.815C72.2862 7.955 72.4762 7.2 72.8562 6.55C73.2362 5.89 73.7562 5.385 74.4162 5.035C75.0762 4.685 75.8162 4.51 76.6362 4.51C77.4562 4.51 78.1962 4.685 78.8562 5.035C79.5162 5.385 80.0362 5.89 80.4162 6.55C80.7962 7.2 80.9862 7.955 80.9862 8.815C80.9862 9.675 80.7912 10.435 80.4012 11.095C80.0212 11.745 79.4962 12.245 78.8262 12.595C78.1662 12.945 77.4262 13.12 76.6062 13.12ZM76.6062 10.9C77.0962 10.9 77.5112 10.72 77.8512 10.36C78.2012 10 78.3762 9.485 78.3762 8.815C78.3762 8.145 78.2062 7.63 77.8662 7.27C77.5362 6.91 77.1262 6.73 76.6362 6.73C76.1362 6.73 75.7212 6.91 75.3912 7.27C75.0612 7.62 74.8962 8.135 74.8962 8.815C74.8962 9.485 75.0562 10 75.3762 10.36C75.7062 10.72 76.1162 10.9 76.6062 10.9ZM84.912 6.025C85.212 5.565 85.587 5.205 86.037 4.945C86.487 4.675 86.987 4.54 87.537 4.54V7.255H86.832C86.192 7.255 85.712 7.395 85.392 7.675C85.072 7.945 84.912 8.425 84.912 9.115V13H82.347V4.63H84.912V6.025ZM90.053 3.76C89.603 3.76 89.233 3.63 88.943 3.37C88.663 3.1 88.523 2.77 88.523 2.38C88.523 1.98 88.663 1.65 88.943 1.39C89.233 1.12 89.603 0.984999 90.053 0.984999C90.493 0.984999 90.853 1.12 91.133 1.39C91.423 1.65 91.568 1.98 91.568 2.38C91.568 2.77 91.423 3.1 91.133 3.37C90.853 3.63 90.493 3.76 90.053 3.76ZM91.328 4.63V13H88.763V4.63H91.328ZM101.077 8.68C101.077 8.92 101.062 9.17 101.032 9.43H95.2268C95.2668 9.95 95.4318 10.35 95.7218 10.63C96.0218 10.9 96.3868 11.035 96.8168 11.035C97.4568 11.035 97.9018 10.765 98.1518 10.225H100.882C100.742 10.775 100.487 11.27 100.117 11.71C99.7568 12.15 99.3018 12.495 98.7518 12.745C98.2018 12.995 97.5868 13.12 96.9068 13.12C96.0868 13.12 95.3568 12.945 94.7168 12.595C94.0768 12.245 93.5768 11.745 93.2168 11.095C92.8568 10.445 92.6768 9.685 92.6768 8.815C92.6768 7.945 92.8518 7.185 93.2018 6.535C93.5618 5.885 94.0618 5.385 94.7018 5.035C95.3418 4.685 96.0768 4.51 96.9068 4.51C97.7168 4.51 98.4368 4.68 99.0668 5.02C99.6968 5.36 100.187 5.845 100.537 6.475C100.897 7.105 101.077 7.84 101.077 8.68ZM98.4518 8.005C98.4518 7.565 98.3018 7.215 98.0018 6.955C97.7018 6.695 97.3268 6.565 96.8768 6.565C96.4468 6.565 96.0818 6.69 95.7818 6.94C95.4918 7.19 95.3118 7.545 95.2418 8.005H98.4518ZM105.835 13.12C105.105 13.12 104.455 12.995 103.885 12.745C103.315 12.495 102.865 12.155 102.535 11.725C102.205 11.285 102.02 10.795 101.98 10.255H104.515C104.545 10.545 104.68 10.78 104.92 10.96C105.16 11.14 105.455 11.23 105.805 11.23C106.125 11.23 106.37 11.17 106.54 11.05C106.72 10.92 106.81 10.755 106.81 10.555C106.81 10.315 106.685 10.14 106.435 10.03C106.185 9.91 105.78 9.78 105.22 9.64C104.62 9.5 104.12 9.355 103.72 9.205C103.32 9.045 102.975 8.8 102.685 8.47C102.395 8.13 102.25 7.675 102.25 7.105C102.25 6.625 102.38 6.19 102.64 5.8C102.91 5.4 103.3 5.085 103.81 4.855C104.33 4.625 104.945 4.51 105.655 4.51C106.705 4.51 107.53 4.77 108.13 5.29C108.74 5.81 109.09 6.5 109.18 7.36H106.81C106.77 7.07 106.64 6.84 106.42 6.67C106.21 6.5 105.93 6.415 105.58 6.415C105.28 6.415 105.05 6.475 104.89 6.595C104.73 6.705 104.65 6.86 104.65 7.06C104.65 7.3 104.775 7.48 105.025 7.6C105.285 7.72 105.685 7.84 106.225 7.96C106.845 8.12 107.35 8.28 107.74 8.44C108.13 8.59 108.47 8.84 108.76 9.19C109.06 9.53 109.215 9.99 109.225 10.57C109.225 11.06 109.085 11.5 108.805 11.89C108.535 12.27 108.14 12.57 107.62 12.79C107.11 13.01 106.515 13.12 105.835 13.12Z"/>
</mask>
<path d="M11.485 11.14H7.555L6.925 13H4.24L8.05 2.47H11.02L14.83 13H12.115L11.485 11.14ZM10.825 9.16L9.52 5.305L8.23 9.16H10.825ZM18.5546 1.9V13H15.9896V1.9H18.5546ZM22.9784 1.9V13H20.4134V1.9H22.9784ZM27.5059 8.815C27.5059 7.945 27.6809 7.185 28.0309 6.535C28.3909 5.885 28.8859 5.385 29.5159 5.035C30.1559 4.685 30.8859 4.51 31.7059 4.51C32.7559 4.51 33.6309 4.785 34.3309 5.335C35.0409 5.885 35.5059 6.66 35.7259 7.66H32.9959C32.7659 7.02 32.3209 6.7 31.6609 6.7C31.1909 6.7 30.8159 6.885 30.5359 7.255C30.2559 7.615 30.1159 8.135 30.1159 8.815C30.1159 9.495 30.2559 10.02 30.5359 10.39C30.8159 10.75 31.1909 10.93 31.6609 10.93C32.3209 10.93 32.7659 10.61 32.9959 9.97H35.7259C35.5059 10.95 35.0409 11.72 34.3309 12.28C33.6209 12.84 32.7459 13.12 31.7059 13.12C30.8859 13.12 30.1559 12.945 29.5159 12.595C28.8859 12.245 28.3909 11.745 28.0309 11.095C27.6809 10.445 27.5059 9.685 27.5059 8.815ZM36.588 8.8C36.588 7.94 36.748 7.185 37.068 6.535C37.398 5.885 37.843 5.385 38.403 5.035C38.963 4.685 39.588 4.51 40.278 4.51C40.868 4.51 41.383 4.63 41.823 4.87C42.273 5.11 42.618 5.425 42.858 5.815V4.63H45.423V13H42.858V11.815C42.608 12.205 42.258 12.52 41.808 12.76C41.368 13 40.853 13.12 40.263 13.12C39.583 13.12 38.963 12.945 38.403 12.595C37.843 12.235 37.398 11.73 37.068 11.08C36.748 10.42 36.588 9.66 36.588 8.8ZM42.858 8.815C42.858 8.175 42.678 7.67 42.318 7.3C41.968 6.93 41.538 6.745 41.028 6.745C40.518 6.745 40.083 6.93 39.723 7.3C39.373 7.66 39.198 8.16 39.198 8.8C39.198 9.44 39.373 9.95 39.723 10.33C40.083 10.7 40.518 10.885 41.028 10.885C41.538 10.885 41.968 10.7 42.318 10.33C42.678 9.96 42.858 9.455 42.858 8.815ZM51.9436 10.825V13H50.6386C49.7086 13 48.9836 12.775 48.4636 12.325C47.9436 11.865 47.6836 11.12 47.6836 10.09V6.76H46.6636V4.63H47.6836V2.59H50.2486V4.63H51.9286V6.76H50.2486V10.12C50.2486 10.37 50.3086 10.55 50.4286 10.66C50.5486 10.77 50.7486 10.825 51.0286 10.825H51.9436ZM61.2624 8.68C61.2624 8.92 61.2474 9.17 61.2174 9.43H55.4124C55.4524 9.95 55.6174 10.35 55.9074 10.63C56.2074 10.9 56.5724 11.035 57.0024 11.035C57.6424 11.035 58.0874 10.765 58.3374 10.225H61.0674C60.9274 10.775 60.6724 11.27 60.3024 11.71C59.9424 12.15 59.4874 12.495 58.9374 12.745C58.3874 12.995 57.7724 13.12 57.0924 13.12C56.2724 13.12 55.5424 12.945 54.9024 12.595C54.2624 12.245 53.7624 11.745 53.4024 11.095C53.0424 10.445 52.8624 9.685 52.8624 8.815C52.8624 7.945 53.0374 7.185 53.3874 6.535C53.7474 5.885 54.2474 5.385 54.8874 5.035C55.5274 4.685 56.2624 4.51 57.0924 4.51C57.9024 4.51 58.6224 4.68 59.2524 5.02C59.8824 5.36 60.3724 5.845 60.7224 6.475C61.0824 7.105 61.2624 7.84 61.2624 8.68ZM58.6374 8.005C58.6374 7.565 58.4874 7.215 58.1874 6.955C57.8874 6.695 57.5124 6.565 57.0624 6.565C56.6324 6.565 56.2674 6.69 55.9674 6.94C55.6774 7.19 55.4974 7.545 55.4274 8.005H58.6374ZM65.7955 4.51C66.3855 4.51 66.9005 4.63 67.3405 4.87C67.7905 5.11 68.1355 5.425 68.3755 5.815V4.63H70.9405V12.985C70.9405 13.755 70.7855 14.45 70.4755 15.07C70.1755 15.7 69.7105 16.2 69.0805 16.57C68.4605 16.94 67.6855 17.125 66.7555 17.125C65.5155 17.125 64.5105 16.83 63.7405 16.24C62.9705 15.66 62.5305 14.87 62.4205 13.87H64.9555C65.0355 14.19 65.2255 14.44 65.5255 14.62C65.8255 14.81 66.1955 14.905 66.6355 14.905C67.1655 14.905 67.5855 14.75 67.8955 14.44C68.2155 14.14 68.3755 13.655 68.3755 12.985V11.8C68.1255 12.19 67.7805 12.51 67.3405 12.76C66.9005 13 66.3855 13.12 65.7955 13.12C65.1055 13.12 64.4805 12.945 63.9205 12.595C63.3605 12.235 62.9155 11.73 62.5855 11.08C62.2655 10.42 62.1055 9.66 62.1055 8.8C62.1055 7.94 62.2655 7.185 62.5855 6.535C62.9155 5.885 63.3605 5.385 63.9205 5.035C64.4805 4.685 65.1055 4.51 65.7955 4.51ZM68.3755 8.815C68.3755 8.175 68.1955 7.67 67.8355 7.3C67.4855 6.93 67.0555 6.745 66.5455 6.745C66.0355 6.745 65.6005 6.93 65.2405 7.3C64.8905 7.66 64.7155 8.16 64.7155 8.8C64.7155 9.44 64.8905 9.95 65.2405 10.33C65.6005 10.7 66.0355 10.885 66.5455 10.885C67.0555 10.885 67.4855 10.7 67.8355 10.33C68.1955 9.96 68.3755 9.455 68.3755 8.815ZM76.6062 13.12C75.7862 13.12 75.0462 12.945 74.3862 12.595C73.7362 12.245 73.2212 11.745 72.8412 11.095C72.4712 10.445 72.2862 9.685 72.2862 8.815C72.2862 7.955 72.4762 7.2 72.8562 6.55C73.2362 5.89 73.7562 5.385 74.4162 5.035C75.0762 4.685 75.8162 4.51 76.6362 4.51C77.4562 4.51 78.1962 4.685 78.8562 5.035C79.5162 5.385 80.0362 5.89 80.4162 6.55C80.7962 7.2 80.9862 7.955 80.9862 8.815C80.9862 9.675 80.7912 10.435 80.4012 11.095C80.0212 11.745 79.4962 12.245 78.8262 12.595C78.1662 12.945 77.4262 13.12 76.6062 13.12ZM76.6062 10.9C77.0962 10.9 77.5112 10.72 77.8512 10.36C78.2012 10 78.3762 9.485 78.3762 8.815C78.3762 8.145 78.2062 7.63 77.8662 7.27C77.5362 6.91 77.1262 6.73 76.6362 6.73C76.1362 6.73 75.7212 6.91 75.3912 7.27C75.0612 7.62 74.8962 8.135 74.8962 8.815C74.8962 9.485 75.0562 10 75.3762 10.36C75.7062 10.72 76.1162 10.9 76.6062 10.9ZM84.912 6.025C85.212 5.565 85.587 5.205 86.037 4.945C86.487 4.675 86.987 4.54 87.537 4.54V7.255H86.832C86.192 7.255 85.712 7.395 85.392 7.675C85.072 7.945 84.912 8.425 84.912 9.115V13H82.347V4.63H84.912V6.025ZM90.053 3.76C89.603 3.76 89.233 3.63 88.943 3.37C88.663 3.1 88.523 2.77 88.523 2.38C88.523 1.98 88.663 1.65 88.943 1.39C89.233 1.12 89.603 0.984999 90.053 0.984999C90.493 0.984999 90.853 1.12 91.133 1.39C91.423 1.65 91.568 1.98 91.568 2.38C91.568 2.77 91.423 3.1 91.133 3.37C90.853 3.63 90.493 3.76 90.053 3.76ZM91.328 4.63V13H88.763V4.63H91.328ZM101.077 8.68C101.077 8.92 101.062 9.17 101.032 9.43H95.2268C95.2668 9.95 95.4318 10.35 95.7218 10.63C96.0218 10.9 96.3868 11.035 96.8168 11.035C97.4568 11.035 97.9018 10.765 98.1518 10.225H100.882C100.742 10.775 100.487 11.27 100.117 11.71C99.7568 12.15 99.3018 12.495 98.7518 12.745C98.2018 12.995 97.5868 13.12 96.9068 13.12C96.0868 13.12 95.3568 12.945 94.7168 12.595C94.0768 12.245 93.5768 11.745 93.2168 11.095C92.8568 10.445 92.6768 9.685 92.6768 8.815C92.6768 7.945 92.8518 7.185 93.2018 6.535C93.5618 5.885 94.0618 5.385 94.7018 5.035C95.3418 4.685 96.0768 4.51 96.9068 4.51C97.7168 4.51 98.4368 4.68 99.0668 5.02C99.6968 5.36 100.187 5.845 100.537 6.475C100.897 7.105 101.077 7.84 101.077 8.68ZM98.4518 8.005C98.4518 7.565 98.3018 7.215 98.0018 6.955C97.7018 6.695 97.3268 6.565 96.8768 6.565C96.4468 6.565 96.0818 6.69 95.7818 6.94C95.4918 7.19 95.3118 7.545 95.2418 8.005H98.4518ZM105.835 13.12C105.105 13.12 104.455 12.995 103.885 12.745C103.315 12.495 102.865 12.155 102.535 11.725C102.205 11.285 102.02 10.795 101.98 10.255H104.515C104.545 10.545 104.68 10.78 104.92 10.96C105.16 11.14 105.455 11.23 105.805 11.23C106.125 11.23 106.37 11.17 106.54 11.05C106.72 10.92 106.81 10.755 106.81 10.555C106.81 10.315 106.685 10.14 106.435 10.03C106.185 9.91 105.78 9.78 105.22 9.64C104.62 9.5 104.12 9.355 103.72 9.205C103.32 9.045 102.975 8.8 102.685 8.47C102.395 8.13 102.25 7.675 102.25 7.105C102.25 6.625 102.38 6.19 102.64 5.8C102.91 5.4 103.3 5.085 103.81 4.855C104.33 4.625 104.945 4.51 105.655 4.51C106.705 4.51 107.53 4.77 108.13 5.29C108.74 5.81 109.09 6.5 109.18 7.36H106.81C106.77 7.07 106.64 6.84 106.42 6.67C106.21 6.5 105.93 6.415 105.58 6.415C105.28 6.415 105.05 6.475 104.89 6.595C104.73 6.705 104.65 6.86 104.65 7.06C104.65 7.3 104.775 7.48 105.025 7.6C105.285 7.72 105.685 7.84 106.225 7.96C106.845 8.12 107.35 8.28 107.74 8.44C108.13 8.59 108.47 8.84 108.76 9.19C109.06 9.53 109.215 9.99 109.225 10.57C109.225 11.06 109.085 11.5 108.805 11.89C108.535 12.27 108.14 12.57 107.62 12.79C107.11 13.01 106.515 13.12 105.835 13.12Z" fill="#151515"/>
<path d="M11.485 11.14L12.4321 10.8192L12.2021 10.14H11.485V11.14ZM7.555 11.14V10.14H6.8379L6.60786 10.8192L7.555 11.14ZM6.925 13V14H7.6421L7.87214 13.3208L6.925 13ZM4.24 13L3.29966 12.6598L2.81473 14H4.24V13ZM8.05 2.47V1.47H7.34838L7.10966 2.12976L8.05 2.47ZM11.02 2.47L11.9603 2.12976L11.7216 1.47H11.02V2.47ZM14.83 13V14H16.2553L15.7703 12.6598L14.83 13ZM12.115 13L11.1679 13.3208L11.3979 14H12.115V13ZM10.825 9.16V10.16H12.2193L11.7722 8.83935L10.825 9.16ZM9.52 5.305L10.4672 4.98435L9.51452 2.17012L8.57169 4.98767L9.52 5.305ZM8.23 9.16L7.28169 8.84267L6.84087 10.16H8.23V9.16ZM11.485 10.14H7.555V12.14H11.485V10.14ZM6.60786 10.8192L5.97786 12.6792L7.87214 13.3208L8.50214 11.4608L6.60786 10.8192ZM6.925 12H4.24V14H6.925V12ZM5.18034 13.3402L8.99034 2.81024L7.10966 2.12976L3.29966 12.6598L5.18034 13.3402ZM8.05 3.47H11.02V1.47H8.05V3.47ZM10.0797 2.81024L13.8897 13.3402L15.7703 12.6598L11.9603 2.12976L10.0797 2.81024ZM14.83 12H12.115V14H14.83V12ZM13.0621 12.6792L12.4321 10.8192L10.5379 11.4608L11.1679 13.3208L13.0621 12.6792ZM11.7722 8.83935L10.4672 4.98435L8.5728 5.62565L9.8778 9.48065L11.7722 8.83935ZM8.57169 4.98767L7.28169 8.84267L9.17831 9.47733L10.4683 5.62233L8.57169 4.98767ZM8.23 10.16H10.825V8.16H8.23V10.16ZM18.5546 1.9H19.5546V0.9H18.5546V1.9ZM18.5546 13V14H19.5546V13H18.5546ZM15.9896 13H14.9896V14H15.9896V13ZM15.9896 1.9V0.9H14.9896V1.9H15.9896ZM17.5546 1.9V13H19.5546V1.9H17.5546ZM18.5546 12H15.9896V14H18.5546V12ZM16.9896 13V1.9H14.9896V13H16.9896ZM15.9896 2.9H18.5546V0.9H15.9896V2.9ZM22.9784 1.9H23.9784V0.9H22.9784V1.9ZM22.9784 13V14H23.9784V13H22.9784ZM20.4134 13H19.4134V14H20.4134V13ZM20.4134 1.9V0.9H19.4134V1.9H20.4134ZM21.9784 1.9V13H23.9784V1.9H21.9784ZM22.9784 12H20.4134V14H22.9784V12ZM21.4134 13V1.9H19.4134V13H21.4134ZM20.4134 2.9H22.9784V0.9H20.4134V2.9ZM28.0309 6.535L27.1561 6.05047L27.1505 6.0609L28.0309 6.535ZM29.5159 5.035L29.0361 4.15761L29.0303 4.16084L29.5159 5.035ZM34.3309 5.335L33.7131 6.12134L33.7185 6.12555L34.3309 5.335ZM35.7259 7.66V8.66H36.9699L36.7026 7.44514L35.7259 7.66ZM32.9959 7.66L32.0549 7.9982L32.2927 8.66H32.9959V7.66ZM30.5359 7.255L31.3254 7.86899L31.3333 7.85844L30.5359 7.255ZM30.5359 10.39L29.7385 10.9935L29.7466 11.0039L30.5359 10.39ZM32.9959 9.97V8.97H32.2927L32.0549 9.6318L32.9959 9.97ZM35.7259 9.97L36.7017 10.189L36.9753 8.97H35.7259V9.97ZM34.3309 12.28L33.7117 11.4948L33.7117 11.4948L34.3309 12.28ZM29.5159 12.595L29.0303 13.4692L29.0361 13.4724L29.5159 12.595ZM28.0309 11.095L27.1504 11.5691L27.1561 11.5795L28.0309 11.095ZM28.5059 8.815C28.5059 8.08093 28.6528 7.48941 28.9114 7.0091L27.1505 6.0609C26.7091 6.88059 26.5059 7.80907 26.5059 8.815H28.5059ZM28.9057 7.0195C29.178 6.5279 29.5405 6.16533 30.0016 5.90916L29.0303 4.16084C28.2314 4.60467 27.6039 5.2421 27.1561 6.0505L28.9057 7.0195ZM29.9958 5.91237C30.4711 5.6524 31.0325 5.51 31.7059 5.51V3.51C30.7394 3.51 29.8408 3.7176 29.0361 4.15763L29.9958 5.91237ZM31.7059 5.51C32.5737 5.51 33.2196 5.73354 33.7131 6.12132L34.9488 4.54868C34.0423 3.83646 32.9382 3.51 31.7059 3.51V5.51ZM33.7185 6.12555C34.2178 6.51228 34.5721 7.06957 34.7493 7.87486L36.7026 7.44514C36.4397 6.25043 35.8641 5.25771 34.9433 4.54445L33.7185 6.12555ZM35.7259 6.66H32.9959V8.66H35.7259V6.66ZM33.937 7.3218C33.7702 6.85759 33.4961 6.43197 33.0735 6.12812C32.6486 5.82254 32.1567 5.7 31.6609 5.7V7.7C31.8251 7.7 31.8858 7.73746 31.9059 7.75188C31.9283 7.76803 31.9917 7.82241 32.0549 7.9982L33.937 7.3218ZM31.6609 5.7C30.8825 5.7 30.2104 6.028 29.7385 6.65156L31.3333 7.85844C31.4215 7.742 31.4994 7.7 31.6609 7.7V5.7ZM29.7466 6.64106C29.2774 7.24428 29.1159 8.0171 29.1159 8.815H31.1159C31.1159 8.2529 31.2345 7.98572 31.3253 7.86894L29.7466 6.64106ZM29.1159 8.815C29.1159 9.61548 29.2784 10.3855 29.7385 10.9934L31.3333 9.78656C31.2334 9.65453 31.1159 9.37452 31.1159 8.815H29.1159ZM29.7466 11.0039C30.2227 11.6161 30.8933 11.93 31.6609 11.93V9.93C31.4885 9.93 31.4092 9.88392 31.3253 9.77606L29.7466 11.0039ZM31.6609 11.93C32.1567 11.93 32.6486 11.8075 33.0735 11.5019C33.4961 11.198 33.7702 10.7724 33.937 10.3082L32.0549 9.6318C31.9917 9.80759 31.9283 9.86197 31.9059 9.87812C31.8858 9.89254 31.8251 9.93 31.6609 9.93V11.93ZM32.9959 10.97H35.7259V8.97H32.9959V10.97ZM34.7502 9.75096C34.5746 10.5333 34.2212 11.0929 33.7117 11.4948L34.9502 13.0652C35.8606 12.3471 36.4373 11.3667 36.7017 10.189L34.7502 9.75096ZM33.7117 11.4948C33.204 11.8953 32.5566 12.12 31.7059 12.12V14.12C32.9353 14.12 34.0379 13.7847 34.9502 13.0652L33.7117 11.4948ZM31.7059 12.12C31.0325 12.12 30.4711 11.9776 29.9957 11.7176L29.0361 13.4724C29.8408 13.9124 30.7394 14.12 31.7059 14.12V12.12ZM30.0016 11.7208C29.5405 11.4647 29.178 11.1021 28.9057 10.6105L27.1561 11.5795C27.6039 12.3879 28.2314 13.0253 29.0303 13.4692L30.0016 11.7208ZM28.9114 10.6209C28.6528 10.1406 28.5059 9.54907 28.5059 8.815H26.5059C26.5059 9.82093 26.7091 10.7494 27.1505 11.5691L28.9114 10.6209ZM37.068 6.535L36.1762 6.08227L36.1708 6.09332L37.068 6.535ZM38.403 5.035L38.933 5.883L38.933 5.883L38.403 5.035ZM41.823 4.87L41.3441 5.74793L41.3524 5.75235L41.823 4.87ZM42.858 5.815L42.0063 6.3391L43.858 9.34804V5.815H42.858ZM42.858 4.63V3.63H41.858V4.63H42.858ZM45.423 4.63H46.423V3.63H45.423V4.63ZM45.423 13V14H46.423V13H45.423ZM42.858 13H41.858V14H42.858V13ZM42.858 11.815H43.858V8.402L42.0161 11.2753L42.858 11.815ZM41.808 12.76L41.3374 11.8776L41.3291 11.8821L41.808 12.76ZM38.403 12.595L37.8622 13.4362L37.873 13.443L38.403 12.595ZM37.068 11.08L36.1682 11.5163L36.1722 11.5245L36.1763 11.5327L37.068 11.08ZM42.318 7.3L41.5914 7.98727L41.6012 7.99735L42.318 7.3ZM39.723 7.3L39.0062 6.60264L39.006 6.60292L39.723 7.3ZM39.723 10.33L38.9874 11.0075L38.9967 11.0175L39.0062 11.0274L39.723 10.33ZM42.318 10.33L41.6012 9.63258L41.5915 9.6428L42.318 10.33ZM37.588 8.8C37.588 8.06474 37.7243 7.46587 37.9651 6.97668L36.1708 6.09332C35.7716 6.90413 35.588 7.81525 35.588 8.8H37.588ZM37.9596 6.98769C38.2161 6.48255 38.5429 6.12676 38.933 5.883L37.873 4.187C37.143 4.64324 36.5798 5.28745 36.1763 6.08231L37.9596 6.98769ZM38.933 5.883C39.3267 5.6369 39.7666 5.51 40.278 5.51V3.51C39.4094 3.51 38.5992 3.73309 37.873 4.187L38.933 5.883ZM40.278 5.51C40.7304 5.51 41.075 5.60113 41.3441 5.74789L42.3018 3.9921C41.6909 3.65887 41.0056 3.51 40.278 3.51V5.51ZM41.3524 5.75235C41.6641 5.91858 41.8696 6.11689 42.0063 6.3391L43.7096 5.2909C43.3664 4.73311 42.8819 4.30141 42.2936 3.98765L41.3524 5.75235ZM43.858 5.815V4.63H41.858V5.815H43.858ZM42.858 5.63H45.423V3.63H42.858V5.63ZM44.423 4.63V13H46.423V4.63H44.423ZM45.423 12H42.858V14H45.423V12ZM43.858 13V11.815H41.858V13H43.858ZM42.0161 11.2753C41.8676 11.507 41.6519 11.7099 41.3374 11.8776L42.2786 13.6424C42.864 13.3301 43.3484 12.903 43.6998 12.3547L42.0161 11.2753ZM41.3291 11.8821C41.06 12.0289 40.7154 12.12 40.263 12.12V14.12C40.9906 14.12 41.6759 13.9711 42.2868 13.6379L41.3291 11.8821ZM40.263 12.12C39.7645 12.12 39.3291 11.9946 38.933 11.747L37.873 13.443C38.5968 13.8954 39.4014 14.12 40.263 14.12V12.12ZM38.9437 11.7538C38.5471 11.4988 38.2171 11.1344 37.9596 10.6273L36.1763 11.5327C36.5788 12.3256 37.1389 12.9712 37.8622 13.4362L38.9437 11.7538ZM37.9678 10.6437C37.7242 10.1413 37.588 9.5348 37.588 8.8H35.588C35.588 9.7852 35.7718 10.6987 36.1682 11.5163L37.9678 10.6437ZM43.858 8.815C43.858 7.98039 43.6176 7.20174 43.0347 6.60264L41.6012 7.99735C41.7383 8.13826 41.858 8.36961 41.858 8.815H43.858ZM43.0444 6.6128C42.5053 6.04282 41.8124 5.745 41.028 5.745V7.745C41.2635 7.745 41.4307 7.81718 41.5915 7.9872L43.0444 6.6128ZM41.028 5.745C40.2443 5.745 39.5519 6.04182 39.0062 6.60264L40.4397 7.99735C40.614 7.81818 40.7916 7.745 41.028 7.745V5.745ZM39.006 6.60292C38.4283 7.19705 38.198 7.97437 38.198 8.8H40.198C40.198 8.34563 40.3176 8.12295 40.44 7.99708L39.006 6.60292ZM38.198 8.8C38.198 9.62829 38.4292 10.4014 38.9874 11.0075L40.4585 9.65252C40.3168 9.49862 40.198 9.25171 40.198 8.8H38.198ZM39.0062 11.0274C39.5519 11.5882 40.2443 11.885 41.028 11.885V9.885C40.7916 9.885 40.614 9.81182 40.4397 9.63265L39.0062 11.0274ZM41.028 11.885C41.8124 11.885 42.5053 11.5872 43.0444 11.0172L41.5915 9.6428C41.4307 9.81282 41.2635 9.885 41.028 9.885V11.885ZM43.0347 11.0274C43.6176 10.4283 43.858 9.64961 43.858 8.815H41.858C41.858 9.26039 41.7383 9.49174 41.6012 9.63265L43.0347 11.0274ZM51.9436 10.825H52.9436V9.825H51.9436V10.825ZM51.9436 13V14H52.9436V13H51.9436ZM48.4636 12.325L47.801 13.074L47.8093 13.0812L48.4636 12.325ZM47.6836 6.76H48.6836V5.76H47.6836V6.76ZM46.6636 6.76H45.6636V7.76H46.6636V6.76ZM46.6636 4.63V3.63H45.6636V4.63H46.6636ZM47.6836 4.63V5.63H48.6836V4.63H47.6836ZM47.6836 2.59V1.59H46.6836V2.59H47.6836ZM50.2486 2.59H51.2486V1.59H50.2486V2.59ZM50.2486 4.63H49.2486V5.63H50.2486V4.63ZM51.9286 4.63H52.9286V3.63H51.9286V4.63ZM51.9286 6.76V7.76H52.9286V6.76H51.9286ZM50.2486 6.76V5.76H49.2486V6.76H50.2486ZM50.4286 10.66L49.7529 11.3972L49.7529 11.3972L50.4286 10.66ZM50.9436 10.825V13H52.9436V10.825H50.9436ZM51.9436 12H50.6386V14H51.9436V12ZM50.6386 12C49.8637 12 49.4008 11.8136 49.118 11.5688L47.8093 13.0812C48.5665 13.7364 49.5535 14 50.6386 14V12ZM49.1262 11.576C48.9072 11.3823 48.6836 10.9737 48.6836 10.09H46.6836C46.6836 11.2663 46.9801 12.3477 47.8011 13.074L49.1262 11.576ZM48.6836 10.09V6.76H46.6836V10.09H48.6836ZM47.6836 5.76H46.6636V7.76H47.6836V5.76ZM47.6636 6.76V4.63H45.6636V6.76H47.6636ZM46.6636 5.63H47.6836V3.63H46.6636V5.63ZM48.6836 4.63V2.59H46.6836V4.63H48.6836ZM47.6836 3.59H50.2486V1.59H47.6836V3.59ZM49.2486 2.59V4.63H51.2486V2.59H49.2486ZM50.2486 5.63H51.9286V3.63H50.2486V5.63ZM50.9286 4.63V6.76H52.9286V4.63H50.9286ZM51.9286 5.76H50.2486V7.76H51.9286V5.76ZM49.2486 6.76V10.12H51.2486V6.76H49.2486ZM49.2486 10.12C49.2486 10.5013 49.3374 11.0163 49.7529 11.3972L51.1044 9.92285C51.189 10.0004 51.2275 10.0819 51.2423 10.1263C51.2552 10.1648 51.2486 10.1696 51.2486 10.12H49.2486ZM49.7529 11.3972C50.1511 11.7622 50.6643 11.825 51.0286 11.825V9.825C50.9908 9.825 50.9643 9.82312 50.9475 9.82119C50.9305 9.81924 50.9269 9.81765 50.9338 9.81954C50.9459 9.82288 51.0198 9.84534 51.1044 9.92285L49.7529 11.3972ZM51.0286 11.825H51.9436V9.825H51.0286V11.825ZM61.2174 9.43V10.43H62.1086L62.2108 9.54462L61.2174 9.43ZM55.4124 9.43V8.43H54.3325L54.4153 9.5067L55.4124 9.43ZM55.9074 10.63L55.2128 11.3494L55.2254 11.3616L55.2384 11.3733L55.9074 10.63ZM58.3374 10.225V9.225H57.6984L57.4299 9.80488L58.3374 10.225ZM61.0674 10.225L62.0365 10.4717L62.3538 9.225H61.0674V10.225ZM60.3024 11.71L59.537 11.0663L59.5284 11.0768L60.3024 11.71ZM58.9374 12.745L59.3512 13.6554L58.9374 12.745ZM54.9024 12.595L54.4226 13.4724L54.4226 13.4724L54.9024 12.595ZM53.4024 11.095L54.2772 10.6105L54.2772 10.6105L53.4024 11.095ZM53.3874 6.535L52.5125 6.05047L52.5069 6.0609L53.3874 6.535ZM54.8874 5.035L55.3672 5.91237L55.3672 5.91237L54.8874 5.035ZM59.2524 5.02L58.7775 5.90002L58.7775 5.90002L59.2524 5.02ZM60.7224 6.475L59.8482 6.96068L59.8541 6.97114L60.7224 6.475ZM58.6374 8.005V9.005H59.6374V8.005H58.6374ZM58.1874 6.955L58.8423 6.19931L58.8423 6.19931L58.1874 6.955ZM55.9674 6.94L55.3272 6.17178L55.3208 6.17713L55.3144 6.18259L55.9674 6.94ZM55.4274 8.005L54.4388 7.85456L54.2637 9.005H55.4274V8.005ZM60.2624 8.68C60.2624 8.87844 60.25 9.09005 60.224 9.31538L62.2108 9.54462C62.2448 9.24995 62.2624 8.96156 62.2624 8.68H60.2624ZM61.2174 8.43H55.4124V10.43H61.2174V8.43ZM54.4153 9.5067C54.4684 10.1972 54.7 10.8543 55.2128 11.3494L56.602 9.9106C56.5347 9.84567 56.4363 9.70281 56.4094 9.3533L54.4153 9.5067ZM55.2384 11.3733C55.7347 11.82 56.343 12.035 57.0024 12.035V10.035C56.8018 10.035 56.68 9.98002 56.5763 9.88671L55.2384 11.3733ZM57.0024 12.035C57.4634 12.035 57.9237 11.9369 58.3349 11.6874C58.7507 11.4351 59.0487 11.0688 59.2448 10.6451L57.4299 9.80488C57.3761 9.92116 57.3265 9.95989 57.2974 9.97756C57.2636 9.99807 57.1814 10.035 57.0024 10.035V12.035ZM58.3374 11.225H61.0674V9.225H58.3374V11.225ZM60.0983 9.97832C59.9959 10.3804 59.8114 10.7401 59.537 11.0664L61.0677 12.3536C61.5334 11.7999 61.8588 11.1696 62.0365 10.4717L60.0983 9.97832ZM59.5284 11.0768C59.2717 11.3906 58.9428 11.6441 58.5236 11.8346L59.3512 13.6554C60.0319 13.3459 60.6131 12.9094 61.0763 12.3432L59.5284 11.0768ZM58.5236 11.8346C58.119 12.0186 57.6476 12.12 57.0924 12.12V14.12C57.8972 14.12 58.6558 13.9714 59.3512 13.6554L58.5236 11.8346ZM57.0924 12.12C56.4189 12.12 55.8576 11.9776 55.3822 11.7176L54.4226 13.4724C55.2272 13.9124 56.1258 14.12 57.0924 14.12V12.12ZM55.3822 11.7176C54.9117 11.4603 54.5472 11.098 54.2772 10.6105L52.5276 11.5795C52.9776 12.392 53.6131 13.0297 54.4226 13.4724L55.3822 11.7176ZM54.2772 10.6105C54.0123 10.1323 53.8624 9.54461 53.8624 8.815H51.8624C51.8624 9.82539 52.0724 10.7577 52.5276 11.5795L54.2772 10.6105ZM53.8624 8.815C53.8624 8.08093 54.0092 7.48941 54.2679 7.0091L52.5069 6.0609C52.0655 6.88059 51.8624 7.80907 51.8624 8.815H53.8624ZM54.2622 7.0195C54.5322 6.53196 54.8967 6.1697 55.3672 5.91237L54.4076 4.15763C53.5981 4.6003 52.9626 5.23804 52.5126 6.0505L54.2622 7.0195ZM55.3672 5.91237C55.8408 5.65336 56.4067 5.51 57.0924 5.51V3.51C56.1181 3.51 55.2139 3.71664 54.4076 4.15763L55.3672 5.91237ZM57.0924 5.51C57.7587 5.51 58.3116 5.64863 58.7775 5.90002L59.7273 4.13998C58.9331 3.71137 58.0461 3.51 57.0924 3.51V5.51ZM58.7775 5.90002C59.2383 6.14872 59.5903 6.49632 59.8482 6.96064L61.5965 5.98936C61.1545 5.19368 60.5265 4.57128 59.7273 4.13998L58.7775 5.90002ZM59.8541 6.97114C60.115 7.42765 60.2624 7.98628 60.2624 8.68H62.2624C62.2624 7.69372 62.0498 6.78235 61.5906 5.97886L59.8541 6.97114ZM59.6374 8.005C59.6374 7.31025 59.3868 6.67119 58.8423 6.19931L57.5325 7.71069C57.588 7.75881 57.6374 7.81975 57.6374 8.005H59.6374ZM58.8423 6.19931C58.3362 5.76067 57.7187 5.565 57.0624 5.565V7.565C57.306 7.565 57.4386 7.62933 57.5325 7.71069L58.8423 6.19931ZM57.0624 5.565C56.4237 5.565 55.8254 5.75658 55.3272 6.17178L56.6076 7.70822C56.7093 7.62342 56.841 7.565 57.0624 7.565V5.565ZM55.3144 6.18259C54.8069 6.62009 54.5366 7.21157 54.4388 7.85456L56.416 8.15544C56.4582 7.87842 56.5478 7.75991 56.6203 7.69741L55.3144 6.18259ZM55.4274 9.005H58.6374V7.005H55.4274V9.005ZM67.3405 4.87L66.8617 5.74793L66.87 5.75235L67.3405 4.87ZM68.3755 5.815L67.5239 6.3391L69.3755 9.34804V5.815H68.3755ZM68.3755 4.63V3.63H67.3755V4.63H68.3755ZM70.9405 4.63H71.9405V3.63H70.9405V4.63ZM70.4755 15.07L69.5811 14.6228L69.5768 14.6314L69.5727 14.6401L70.4755 15.07ZM69.0805 16.57L68.5741 15.7077L68.5681 15.7113L69.0805 16.57ZM63.7405 16.24L64.3488 15.4462L64.3422 15.4412L63.7405 16.24ZM62.4205 13.87V12.87H61.3045L61.4265 13.9793L62.4205 13.87ZM64.9555 13.87L65.9257 13.6275L65.7363 12.87H64.9555V13.87ZM65.5255 14.62L66.0606 13.7752L66.0504 13.7687L66.04 13.7625L65.5255 14.62ZM67.8955 14.44L67.2116 13.7105L67.1998 13.7215L67.1884 13.7329L67.8955 14.44ZM68.3755 11.8H69.3755V8.387L67.5337 11.2603L68.3755 11.8ZM67.3405 12.76L67.8194 13.6379L67.827 13.6337L67.8346 13.6295L67.3405 12.76ZM63.9205 12.595L63.3797 13.4362L63.3905 13.443L63.9205 12.595ZM62.5855 11.08L61.6857 11.5163L61.6897 11.5245L61.6939 11.5327L62.5855 11.08ZM62.5855 6.535L61.6938 6.08227L61.6884 6.09332L62.5855 6.535ZM63.9205 5.035L64.4505 5.883L64.4505 5.883L63.9205 5.035ZM67.8355 7.3L67.109 7.98727L67.1188 7.99735L67.8355 7.3ZM65.2405 7.3L64.5238 6.60264L64.5236 6.60292L65.2405 7.3ZM65.2405 10.33L64.505 11.0075L64.5143 11.0175L64.5238 11.0274L65.2405 10.33ZM67.8355 10.33L67.1188 9.63258L67.1091 9.6428L67.8355 10.33ZM65.7955 5.51C66.2479 5.51 66.5926 5.60113 66.8617 5.74789L67.8194 3.9921C67.2085 3.65887 66.5232 3.51 65.7955 3.51V5.51ZM66.87 5.75235C67.1816 5.91858 67.3871 6.11689 67.5239 6.3391L69.2272 5.2909C68.8839 4.73311 68.3995 4.30141 67.8111 3.98765L66.87 5.75235ZM69.3755 5.815V4.63H67.3755V5.815H69.3755ZM68.3755 5.63H70.9405V3.63H68.3755V5.63ZM69.9405 4.63V12.985H71.9405V4.63H69.9405ZM69.9405 12.985C69.9405 13.6172 69.8143 14.1564 69.5811 14.6228L71.37 15.5172C71.7568 14.7436 71.9405 13.8928 71.9405 12.985H69.9405ZM69.5727 14.6401C69.3628 15.0808 69.0403 15.4339 68.5741 15.7077L69.587 17.4323C70.3808 16.9661 70.9883 16.3192 71.3784 15.4999L69.5727 14.6401ZM68.5681 15.7113C68.1416 15.9658 67.5561 16.125 66.7555 16.125V18.125C67.815 18.125 68.7795 17.9142 69.593 17.4287L68.5681 15.7113ZM66.7555 16.125C65.6736 16.125 64.9008 15.8692 64.3488 15.4462L63.1323 17.0338C64.1203 17.7908 65.3575 18.125 66.7555 18.125V16.125ZM64.3422 15.4412C63.803 15.0351 63.4959 14.5 63.4146 13.7607L61.4265 13.9793C61.5652 15.24 62.1381 16.2849 63.1389 17.0388L64.3422 15.4412ZM62.4205 14.87H64.9555V12.87H62.4205V14.87ZM63.9854 14.1125C64.1339 14.7067 64.4989 15.1702 65.0111 15.4775L66.04 13.7625C65.9522 13.7098 65.9372 13.6733 65.9257 13.6275L63.9854 14.1125ZM64.9905 15.4648C65.4849 15.7779 66.0514 15.905 66.6355 15.905V13.905C66.3397 13.905 66.1662 13.8421 66.0606 13.7752L64.9905 15.4648ZM66.6355 15.905C67.3716 15.905 68.0671 15.6827 68.6027 15.1471L67.1884 13.7329C67.104 13.8173 66.9595 13.905 66.6355 13.905V15.905ZM68.5795 15.1695C69.1867 14.6003 69.3755 13.7869 69.3755 12.985H67.3755C67.3755 13.5231 67.2444 13.6797 67.2116 13.7105L68.5795 15.1695ZM69.3755 12.985V11.8H67.3755V12.985H69.3755ZM67.5337 11.2603C67.3791 11.5015 67.1589 11.7131 66.8465 11.8905L67.8346 13.6295C68.4022 13.3069 68.872 12.8785 69.2174 12.3397L67.5337 11.2603ZM66.8617 11.8821C66.5926 12.0289 66.2479 12.12 65.7955 12.12V14.12C66.5232 14.12 67.2085 13.9711 67.8194 13.6379L66.8617 11.8821ZM65.7955 12.12C65.2841 12.12 64.8443 11.9931 64.4505 11.747L63.3905 13.443C64.1168 13.8969 64.9269 14.12 65.7955 14.12V12.12ZM64.4613 11.7538C64.0647 11.4988 63.7347 11.1344 63.4772 10.6273L61.6939 11.5327C62.0964 12.3256 62.6564 12.9712 63.3798 13.4362L64.4613 11.7538ZM63.4854 10.6437C63.2417 10.1413 63.1055 9.5348 63.1055 8.8H61.1055C61.1055 9.7852 61.2894 10.6987 61.6857 11.5163L63.4854 10.6437ZM63.1055 8.8C63.1055 8.06474 63.2419 7.46587 63.4827 6.97668L61.6884 6.09332C61.2892 6.90413 61.1055 7.81525 61.1055 8.8H63.1055ZM63.4772 6.98769C63.7337 6.48255 64.0605 6.12676 64.4505 5.883L63.3905 4.187C62.6606 4.64324 62.0974 5.28745 61.6939 6.08231L63.4772 6.98769ZM64.4505 5.883C64.8443 5.6369 65.2841 5.51 65.7955 5.51V3.51C64.9269 3.51 64.1168 3.73309 63.3905 4.187L64.4505 5.883ZM69.3755 8.815C69.3755 7.98039 69.1352 7.20174 68.5523 6.60264L67.1188 7.99735C67.2559 8.13826 67.3755 8.36961 67.3755 8.815H69.3755ZM68.562 6.6128C68.0228 6.04282 67.33 5.745 66.5455 5.745V7.745C66.7811 7.745 66.9482 7.81718 67.1091 7.9872L68.562 6.6128ZM66.5455 5.745C65.7619 5.745 65.0695 6.04182 64.5238 6.60264L65.9573 7.99735C66.1316 7.81818 66.3092 7.745 66.5455 7.745V5.745ZM64.5236 6.60292C63.9459 7.19705 63.7155 7.97437 63.7155 8.8H65.7155C65.7155 8.34563 65.8352 8.12295 65.9575 7.99708L64.5236 6.60292ZM63.7155 8.8C63.7155 9.62829 63.9468 10.4014 64.505 11.0075L65.9761 9.65252C65.8343 9.49862 65.7155 9.25171 65.7155 8.8H63.7155ZM64.5238 11.0274C65.0695 11.5882 65.7619 11.885 66.5455 11.885V9.885C66.3092 9.885 66.1316 9.81182 65.9573 9.63265L64.5238 11.0274ZM66.5455 11.885C67.33 11.885 68.0228 11.5872 68.562 11.0172L67.1091 9.6428C66.9482 9.81282 66.7811 9.885 66.5455 9.885V11.885ZM68.5523 11.0274C69.1352 10.4283 69.3755 9.64961 69.3755 8.815H67.3755C67.3755 9.26039 67.2559 9.49174 67.1188 9.63265L68.5523 11.0274ZM74.3862 12.595L73.9121 13.4755L73.9177 13.4785L74.3862 12.595ZM72.8412 11.095L71.9721 11.5897L71.9779 11.5997L72.8412 11.095ZM72.8562 6.55L73.7195 7.05471L73.7228 7.04896L72.8562 6.55ZM74.4162 5.035L74.8847 5.91846L74.8847 5.91846L74.4162 5.035ZM78.8562 5.035L78.3877 5.91846L78.3877 5.91846L78.8562 5.035ZM80.4162 6.55L79.5496 7.04898L79.5529 7.0547L80.4162 6.55ZM80.4012 11.095L79.5403 10.5863L79.5379 10.5903L80.4012 11.095ZM78.8262 12.595L78.3632 11.7086L78.3577 11.7115L78.8262 12.595ZM77.8512 10.36L77.1342 9.66292L77.1292 9.66811L77.1242 9.67338L77.8512 10.36ZM77.8662 7.27L77.1291 7.94572L77.1341 7.95121L77.1392 7.95662L77.8662 7.27ZM75.3912 7.27L76.1189 7.95608L76.1284 7.94572L75.3912 7.27ZM75.3762 10.36L74.6288 11.0244L74.6339 11.0301L74.6391 11.0357L75.3762 10.36ZM76.6062 12.12C75.9333 12.12 75.3567 11.9777 74.8547 11.7115L73.9177 13.4785C74.7357 13.9123 75.6391 14.12 76.6062 14.12V12.12ZM74.8603 11.7145C74.3755 11.4535 73.9937 11.085 73.7045 10.5903L71.9779 11.5997C72.4487 12.405 73.097 13.0365 73.9121 13.4755L74.8603 11.7145ZM73.7103 10.6003C73.4392 10.1241 73.2862 9.54011 73.2862 8.815H71.2862C71.2862 9.82989 71.5032 10.7659 71.9721 11.5897L73.7103 10.6003ZM73.2862 8.815C73.2862 8.10672 73.4411 7.53084 73.7195 7.0547L71.9929 6.0453C71.5113 6.86916 71.2862 7.80328 71.2862 8.815H73.2862ZM73.7228 7.04896C74.0109 6.54869 74.3943 6.17851 74.8847 5.91846L73.9477 4.15154C73.1181 4.59149 72.4615 5.23131 71.9896 6.05104L73.7228 7.04896ZM74.8847 5.91846C75.3867 5.65227 75.9633 5.51 76.6362 5.51V3.51C75.6691 3.51 74.7657 3.71773 73.9477 4.15154L74.8847 5.91846ZM76.6362 5.51C77.3091 5.51 77.8857 5.65227 78.3877 5.91846L79.3247 4.15154C78.5067 3.71773 77.6033 3.51 76.6362 3.51V5.51ZM78.3877 5.91846C78.8781 6.17851 79.2615 6.54869 79.5496 7.04896L81.2828 6.05104C80.8109 5.23131 80.1543 4.59149 79.3247 4.15154L78.3877 5.91846ZM79.5529 7.0547C79.8313 7.53084 79.9862 8.10672 79.9862 8.815H81.9862C81.9862 7.80328 81.7611 6.86916 81.2795 6.0453L79.5529 7.0547ZM79.9862 8.815C79.9862 9.51835 79.8285 10.0985 79.5403 10.5863L81.2621 11.6037C81.7539 10.7715 81.9862 9.83165 81.9862 8.815H79.9862ZM79.5379 10.5903C79.2532 11.0773 78.8672 11.4453 78.3632 11.7087L79.2892 13.4813C80.1252 13.0447 80.7892 12.4127 81.2645 11.5997L79.5379 10.5903ZM78.3577 11.7115C77.8557 11.9777 77.2791 12.12 76.6062 12.12V14.12C77.5733 14.12 78.4767 13.9123 79.2947 13.4785L78.3577 11.7115ZM76.6062 11.9C77.3746 11.9 78.0516 11.6042 78.5782 11.0466L77.1242 9.67338C76.9708 9.83575 76.8178 9.9 76.6062 9.9V11.9ZM78.5682 11.0571C79.1538 10.4548 79.3762 9.65581 79.3762 8.815H77.3762C77.3762 9.31419 77.2487 9.5452 77.1342 9.66292L78.5682 11.0571ZM79.3762 8.815C79.3762 7.98151 79.1628 7.18647 78.5932 6.58338L77.1392 7.95662C77.2496 8.07353 77.3762 8.30849 77.3762 8.815H79.3762ZM78.6034 6.59427C78.0832 6.02686 77.4054 5.73 76.6362 5.73V7.73C76.847 7.73 76.9892 7.79314 77.1291 7.94572L78.6034 6.59427ZM76.6362 5.73C75.8635 5.73 75.1785 6.02212 74.6541 6.59427L76.1284 7.94572C76.2639 7.79788 76.4089 7.73 76.6362 7.73V5.73ZM74.6636 6.58399C74.0976 7.18435 73.8962 7.98569 73.8962 8.815H75.8962C75.8962 8.28431 76.0249 8.05565 76.1188 7.95601L74.6636 6.58399ZM73.8962 8.815C73.8962 9.63416 74.0921 10.4206 74.6288 11.0244L76.1236 9.69564C76.0203 9.57944 75.8962 9.33584 75.8962 8.815H73.8962ZM74.6391 11.0357C75.1592 11.6031 75.837 11.9 76.6062 11.9V9.9C76.3954 9.9 76.2532 9.83686 76.1134 9.68428L74.6391 11.0357ZM84.912 6.025H83.912V9.38894L85.7496 6.57127L84.912 6.025ZM86.037 4.945L86.5373 5.81087L86.5444 5.80674L86.5515 5.80249L86.037 4.945ZM87.537 4.54H88.537V3.54H87.537V4.54ZM87.537 7.255V8.255H88.537V7.255H87.537ZM85.392 7.675L86.0369 8.43929L86.0437 8.4335L86.0505 8.42758L85.392 7.675ZM84.912 13V14H85.912V13H84.912ZM82.347 13H81.347V14H82.347V13ZM82.347 4.63V3.63H81.347V4.63H82.347ZM84.912 4.63H85.912V3.63H84.912V4.63ZM85.7496 6.57127C85.9688 6.23514 86.231 5.98784 86.5373 5.81087L85.5367 4.07913C84.943 4.42215 84.4552 4.89486 84.0744 5.47873L85.7496 6.57127ZM86.5515 5.80249C86.8385 5.63031 87.1591 5.54 87.537 5.54V3.54C86.8148 3.54 86.1355 3.71969 85.5225 4.08751L86.5515 5.80249ZM86.537 4.54V7.255H88.537V4.54H86.537ZM87.537 6.255H86.832V8.255H87.537V6.255ZM86.832 6.255C86.0682 6.255 85.3086 6.41919 84.7335 6.92242L86.0505 8.42758C86.1154 8.37081 86.3158 8.255 86.832 8.255V6.255ZM84.7471 6.91071C84.0905 7.46477 83.912 8.31672 83.912 9.115H85.912C85.912 8.53328 86.0535 8.42523 86.0369 8.43929L84.7471 6.91071ZM83.912 9.115V13H85.912V9.115H83.912ZM84.912 12H82.347V14H84.912V12ZM83.347 13V4.63H81.347V13H83.347ZM82.347 5.63H84.912V3.63H82.347V5.63ZM83.912 4.63V6.025H85.912V4.63H83.912ZM88.943 3.37L88.2489 4.08984L88.2619 4.10245L88.2755 4.11457L88.943 3.37ZM88.943 1.39L89.6235 2.12279L89.6244 2.12189L88.943 1.39ZM91.133 1.39L90.4389 2.10984L90.4519 2.12245L90.4655 2.13457L91.133 1.39ZM91.133 3.37L91.8135 4.10279L91.8144 4.10189L91.133 3.37ZM91.328 4.63H92.328V3.63H91.328V4.63ZM91.328 13V14H92.328V13H91.328ZM88.763 13H87.763V14H88.763V13ZM88.763 4.63V3.63H87.763V4.63H88.763ZM90.053 2.76C89.8086 2.76 89.6889 2.69563 89.6106 2.62543L88.2755 4.11457C88.7772 4.56437 89.3974 4.76 90.053 4.76V2.76ZM89.6371 2.65016C89.5532 2.56919 89.523 2.49929 89.523 2.38H87.523C87.523 3.04071 87.7728 3.63081 88.2489 4.08984L89.6371 2.65016ZM89.523 2.38C89.523 2.24339 89.5577 2.18382 89.6235 2.12279L88.2626 0.657206C87.7683 1.11618 87.523 1.71661 87.523 2.38H89.523ZM89.6244 2.12189C89.704 2.04783 89.8189 1.985 90.053 1.985V-0.0150009C89.3871 -0.0150009 88.762 0.192171 88.2616 0.658105L89.6244 2.12189ZM90.053 1.985C90.2709 1.985 90.3702 2.0436 90.4389 2.10984L91.8271 0.670155C91.3358 0.196403 90.7151 -0.0150009 90.053 -0.0150009V1.985ZM90.4655 2.13457C90.5375 2.19913 90.568 2.25541 90.568 2.38H92.568C92.568 1.70459 92.3085 1.10087 91.8006 0.64543L90.4655 2.13457ZM90.568 2.38C90.568 2.48739 90.5421 2.55384 90.4516 2.63811L91.8144 4.10189C92.3039 3.64616 92.568 3.05261 92.568 2.38H90.568ZM90.4526 2.63721C90.3855 2.69945 90.2816 2.76 90.053 2.76V4.76C90.7044 4.76 91.3205 4.56055 91.8135 4.10279L90.4526 2.63721ZM90.328 4.63V13H92.328V4.63H90.328ZM91.328 12H88.763V14H91.328V12ZM89.763 13V4.63H87.763V13H89.763ZM88.763 5.63H91.328V3.63H88.763V5.63ZM101.032 9.43V10.43H101.923L102.025 9.54462L101.032 9.43ZM95.2268 9.43V8.43H94.147L94.2298 9.5067L95.2268 9.43ZM95.7218 10.63L95.0272 11.3494L95.0398 11.3616L95.0529 11.3733L95.7218 10.63ZM98.1518 10.225V9.225H97.5128L97.2444 9.80488L98.1518 10.225ZM100.882 10.225L101.851 10.4717L102.168 9.225H100.882V10.225ZM100.117 11.71L99.3514 11.0663L99.3429 11.0768L100.117 11.71ZM98.7518 12.745L99.1656 13.6554L98.7518 12.745ZM94.7168 12.595L94.237 13.4724L94.237 13.4724L94.7168 12.595ZM93.2168 11.095L94.0916 10.6105L94.0916 10.6105L93.2168 11.095ZM93.2018 6.535L92.327 6.05047L92.3214 6.0609L93.2018 6.535ZM94.7018 5.035L95.1816 5.91237L95.1816 5.91237L94.7018 5.035ZM99.0668 5.02L98.5919 5.90002L98.5919 5.90002L99.0668 5.02ZM100.537 6.475L99.6626 6.96068L99.6686 6.97114L100.537 6.475ZM98.4518 8.005V9.005H99.4518V8.005H98.4518ZM98.0018 6.955L98.6568 6.19931L98.6568 6.19931L98.0018 6.955ZM95.7818 6.94L95.1417 6.17178L95.1352 6.17713L95.1289 6.18259L95.7818 6.94ZM95.2418 8.005L94.2532 7.85456L94.0782 9.005H95.2418V8.005ZM100.077 8.68C100.077 8.87844 100.064 9.09005 100.038 9.31538L102.025 9.54462C102.059 9.24995 102.077 8.96156 102.077 8.68H100.077ZM101.032 8.43H95.2268V10.43H101.032V8.43ZM94.2298 9.5067C94.2829 10.1972 94.5145 10.8543 95.0272 11.3494L96.4164 9.9106C96.3492 9.84567 96.2508 9.70281 96.2239 9.3533L94.2298 9.5067ZM95.0529 11.3733C95.5492 11.82 96.1574 12.035 96.8168 12.035V10.035C96.6163 10.035 96.4945 9.98002 96.3908 9.88671L95.0529 11.3733ZM96.8168 12.035C97.2779 12.035 97.7381 11.9369 98.1493 11.6874C98.5652 11.4351 98.8631 11.0688 99.0593 10.6451L97.2444 9.80488C97.1905 9.92116 97.141 9.95989 97.1119 9.97756C97.0781 9.99807 96.9958 10.035 96.8168 10.035V12.035ZM98.1518 11.225H100.882V9.225H98.1518V11.225ZM99.9127 9.97832C99.8104 10.3804 99.6258 10.7401 99.3515 11.0664L100.882 12.3536C101.348 11.7999 101.673 11.1696 101.851 10.4717L99.9127 9.97832ZM99.3429 11.0768C99.0861 11.3906 98.7573 11.6441 98.338 11.8346L99.1656 13.6554C99.8464 13.3459 100.428 12.9094 100.891 12.3432L99.3429 11.0768ZM98.338 11.8346C97.9334 12.0186 97.4621 12.12 96.9068 12.12V14.12C97.7116 14.12 98.4703 13.9714 99.1656 13.6554L98.338 11.8346ZM96.9068 12.12C96.2334 12.12 95.672 11.9776 95.1966 11.7176L94.237 13.4724C95.0417 13.9124 95.9403 14.12 96.9068 14.12V12.12ZM95.1966 11.7176C94.7261 11.4603 94.3616 11.098 94.0916 10.6105L92.342 11.5795C92.792 12.392 93.4276 13.0297 94.237 13.4724L95.1966 11.7176ZM94.0916 10.6105C93.8268 10.1323 93.6768 9.54461 93.6768 8.815H91.6768C91.6768 9.82539 91.8869 10.7577 92.342 11.5795L94.0916 10.6105ZM93.6768 8.815C93.6768 8.08093 93.8237 7.48941 94.0823 7.0091L92.3214 6.0609C91.88 6.88059 91.6768 7.80907 91.6768 8.815H93.6768ZM94.0766 7.0195C94.3466 6.53196 94.7111 6.1697 95.1816 5.91237L94.222 4.15763C93.4126 4.6003 92.777 5.23804 92.327 6.0505L94.0766 7.0195ZM95.1816 5.91237C95.6553 5.65336 96.2211 5.51 96.9068 5.51V3.51C95.9326 3.51 95.0284 3.71664 94.222 4.15763L95.1816 5.91237ZM96.9068 5.51C97.5731 5.51 98.1261 5.64863 98.5919 5.90002L99.5418 4.13998C98.7476 3.71137 97.8606 3.51 96.9068 3.51V5.51ZM98.5919 5.90002C99.0527 6.14872 99.4047 6.49632 99.6627 6.96064L101.411 5.98936C100.969 5.19368 100.341 4.57128 99.5418 4.13998L98.5919 5.90002ZM99.6686 6.97114C99.9295 7.42765 100.077 7.98628 100.077 8.68H102.077C102.077 7.69372 101.864 6.78235 101.405 5.97886L99.6686 6.97114ZM99.4518 8.005C99.4518 7.31025 99.2012 6.67119 98.6568 6.19931L97.3469 7.71069C97.4024 7.75881 97.4518 7.81975 97.4518 8.005H99.4518ZM98.6568 6.19931C98.1506 5.76067 97.5332 5.565 96.8768 5.565V7.565C97.1205 7.565 97.253 7.62933 97.3469 7.71069L98.6568 6.19931ZM96.8768 5.565C96.2382 5.565 95.6399 5.75658 95.1417 6.17178L96.422 7.70822C96.5238 7.62342 96.6555 7.565 96.8768 7.565V5.565ZM95.1289 6.18259C94.6214 6.62009 94.3511 7.21157 94.2532 7.85456L96.2305 8.15544C96.2726 7.87842 96.3623 7.75991 96.4348 7.69741L95.1289 6.18259ZM95.2418 9.005H98.4518V7.005H95.2418V9.005ZM103.885 12.745L104.287 11.8292L104.287 11.8292L103.885 12.745ZM102.535 11.725L101.735 12.325L101.742 12.3338L102.535 11.725ZM101.98 10.255V9.255H100.903L100.983 10.3289L101.98 10.255ZM104.515 10.255L105.51 10.1521L105.417 9.255H104.515V10.255ZM104.92 10.96L105.52 10.16L105.52 10.16L104.92 10.96ZM106.54 11.05L107.117 11.867L107.125 11.8607L106.54 11.05ZM106.435 10.03L106.002 10.9315L106.017 10.9387L106.032 10.9453L106.435 10.03ZM105.22 9.64L105.463 8.66986L105.455 8.66795L105.447 8.66616L105.22 9.64ZM103.72 9.205L103.349 10.1335L103.359 10.1375L103.369 10.1413L103.72 9.205ZM102.685 8.47L101.924 9.11895L101.929 9.12457L101.934 9.13011L102.685 8.47ZM102.64 5.8L101.811 5.24052L101.808 5.2453L102.64 5.8ZM103.81 4.855L103.405 3.94044L103.399 3.94341L103.81 4.855ZM108.13 5.29L107.475 6.04571L107.481 6.05102L108.13 5.29ZM109.18 7.36V8.36H110.29L110.175 7.25592L109.18 7.36ZM106.81 7.36L105.819 7.49664L105.938 8.36H106.81V7.36ZM106.42 6.67L105.791 7.44724L105.8 7.45437L105.809 7.46129L106.42 6.67ZM104.89 6.595L105.457 7.41904L105.474 7.40737L105.49 7.395L104.89 6.595ZM105.025 7.6L104.592 8.50152L104.599 8.50479L104.606 8.50796L105.025 7.6ZM106.225 7.96L106.475 6.99172L106.458 6.98749L106.442 6.98381L106.225 7.96ZM107.74 8.44L107.36 9.36517L107.371 9.36937L107.381 9.37335L107.74 8.44ZM108.76 9.19L107.99 9.82802L108 9.83998L108.01 9.85162L108.76 9.19ZM109.225 10.57H110.225V10.5614L110.225 10.5528L109.225 10.57ZM108.805 11.89L107.993 11.3068L107.99 11.3108L108.805 11.89ZM107.62 12.79L107.23 11.869L107.224 11.8718L107.62 12.79ZM105.835 12.12C105.22 12.12 104.71 12.0149 104.287 11.8292L103.483 13.6608C104.2 13.9751 104.99 14.12 105.835 14.12V12.12ZM104.287 11.8292C103.848 11.6368 103.541 11.3938 103.328 11.1162L101.742 12.3338C102.189 12.9162 102.782 13.3532 103.483 13.6608L104.287 11.8292ZM103.335 11.125C103.118 10.8354 103.003 10.5273 102.977 10.1811L100.983 10.3289C101.037 11.0627 101.292 11.7346 101.735 12.325L103.335 11.125ZM101.98 11.255H104.515V9.255H101.98V11.255ZM103.52 10.3579C103.58 10.9341 103.864 11.4183 104.32 11.76L105.52 10.16C105.508 10.1508 105.502 10.1452 105.502 10.1442C105.501 10.1435 105.503 10.1457 105.506 10.1506C105.509 10.1556 105.51 10.16 105.511 10.1624C105.512 10.1645 105.511 10.1617 105.51 10.1521L103.52 10.3579ZM104.32 11.76C104.761 12.0906 105.276 12.23 105.805 12.23V10.23C105.634 10.23 105.559 10.1894 105.52 10.16L104.32 11.76ZM105.805 12.23C106.228 12.23 106.709 12.1545 107.117 11.867L105.963 10.233C106 10.2073 106.017 10.2073 105.991 10.2137C105.964 10.2203 105.905 10.23 105.805 10.23V12.23ZM107.125 11.8607C107.533 11.5667 107.81 11.115 107.81 10.555H105.81C105.81 10.4987 105.824 10.4237 105.865 10.3499C105.903 10.2797 105.945 10.246 105.955 10.2393L107.125 11.8607ZM107.81 10.555C107.81 10.2518 107.728 9.93907 107.53 9.66251C107.338 9.39419 107.083 9.22282 106.838 9.11469L106.032 10.9453C106.037 10.9472 105.969 10.9183 105.903 10.825C105.83 10.7234 105.81 10.6182 105.81 10.555H107.81ZM106.868 9.12848C106.521 8.96219 106.034 8.81263 105.463 8.66986L104.977 10.6101C105.526 10.7474 105.849 10.8578 106.002 10.9315L106.868 9.12848ZM105.447 8.66616C104.873 8.53209 104.417 8.39849 104.071 8.26867L103.369 10.1413C103.823 10.3115 104.367 10.4679 104.993 10.6138L105.447 8.66616ZM104.091 8.27652C103.84 8.17608 103.625 8.02425 103.436 7.80989L101.934 9.13011C102.325 9.57575 102.8 9.91392 103.349 10.1335L104.091 8.27652ZM103.446 7.82105C103.349 7.70732 103.25 7.5043 103.25 7.105H101.25C101.25 7.8457 101.441 8.55268 101.924 9.11895L103.446 7.82105ZM103.25 7.105C103.25 6.81738 103.324 6.57629 103.472 6.3547L101.808 5.2453C101.436 5.80371 101.25 6.43262 101.25 7.105H103.25ZM103.469 6.35947C103.619 6.13652 103.853 5.93264 104.221 5.76659L103.399 3.94341C102.747 4.23736 102.201 4.66348 101.811 5.24053L103.469 6.35947ZM104.215 5.76953C104.58 5.60805 105.051 5.51 105.655 5.51V3.51C104.839 3.51 104.08 3.64194 103.405 3.94046L104.215 5.76953ZM105.655 5.51C106.543 5.51 107.109 5.72812 107.475 6.04569L108.785 4.53431C107.951 3.81188 106.867 3.51 105.655 3.51V5.51ZM107.481 6.05102C107.88 6.39069 108.12 6.83728 108.185 7.46408L110.175 7.25592C110.06 6.16271 109.6 5.22931 108.779 4.52898L107.481 6.05102ZM109.18 6.36H106.81V8.36H109.18V6.36ZM107.801 7.22336C107.727 6.68914 107.471 6.21802 107.031 5.87871L105.809 7.46129C105.815 7.46602 105.816 7.46817 105.816 7.46725C105.815 7.46624 105.813 7.46427 105.812 7.46206C105.811 7.45991 105.811 7.4602 105.813 7.46449C105.814 7.46896 105.817 7.47915 105.819 7.49664L107.801 7.22336ZM107.049 5.89275C106.614 5.54073 106.091 5.415 105.58 5.415V7.415C105.675 7.415 105.733 7.42668 105.762 7.43563C105.789 7.44379 105.794 7.44993 105.791 7.44724L107.049 5.89275ZM105.58 5.415C105.166 5.415 104.69 5.49469 104.29 5.795L105.49 7.395C105.449 7.42612 105.422 7.4309 105.435 7.42762C105.449 7.42387 105.494 7.415 105.58 7.415V5.415ZM104.323 5.77096C103.883 6.07411 103.65 6.54252 103.65 7.06H105.65C105.65 7.09605 105.642 7.16856 105.599 7.25239C105.555 7.33736 105.497 7.3914 105.457 7.41904L104.323 5.77096ZM103.65 7.06C103.65 7.36357 103.733 7.67197 103.922 7.9454C104.106 8.21051 104.352 8.38617 104.592 8.50152L105.458 6.69848C105.448 6.69383 105.506 6.71949 105.565 6.8046C105.63 6.89803 105.65 6.99643 105.65 7.06H103.65ZM104.606 8.50796C104.966 8.67395 105.45 8.8122 106.008 8.93619L106.442 6.98381C105.92 6.8678 105.604 6.76605 105.444 6.69204L104.606 8.50796ZM105.975 8.92828C106.571 9.08208 107.028 9.2289 107.36 9.36517L108.12 7.51483C107.672 7.3311 107.119 7.15792 106.475 6.99172L105.975 8.92828ZM107.381 9.37335C107.597 9.45645 107.8 9.59816 107.99 9.82802L109.53 8.55198C109.14 8.08184 108.663 7.72355 108.099 7.50665L107.381 9.37335ZM108.01 9.85162C108.113 9.96828 108.218 10.1769 108.225 10.5872L110.225 10.5528C110.212 9.80305 110.007 9.09172 109.51 8.52838L108.01 9.85162ZM108.225 10.57C108.225 10.8554 108.148 11.0905 107.993 11.3068L109.617 12.4732C110.022 11.9095 110.225 11.2646 110.225 10.57H108.225ZM107.99 11.3108C107.848 11.5105 107.616 11.706 107.23 11.869L108.01 13.711C108.664 13.434 109.222 13.0295 109.62 12.4692L107.99 11.3108ZM107.224 11.8718C106.864 12.0272 106.409 12.12 105.835 12.12V14.12C106.621 14.12 107.356 13.9928 108.016 13.7082L107.224 11.8718Z" fill="black" mask="url(#path-1-outside-1_6707_23926)"/>
</g>
<defs>
<filter id="filter0_d_6707_23926" x="0.240234" y="0.984985" width="112.984" height="24.14" filterUnits="userSpaceOnUse" color-interpolation-filters="sRGB">
<feFlood flood-opacity="0" result="BackgroundImageFix"/>
<feColorMatrix in="SourceAlpha" type="matrix" values="0 0 0 0 0 0 0 0 0 0 0 0 0 0 0 0 0 0 127 0" result="hardAlpha"/>
<feOffset dy="4"/>
<feGaussianBlur stdDeviation="2"/>
<feComposite in2="hardAlpha" operator="out"/>
<feColorMatrix type="matrix" values="0 0 0 0 0 0 0 0 0 0 0 0 0 0 0 0 0 0 0.25 0"/>
<feBlend mode="normal" in2="BackgroundImageFix" result="effect1_dropShadow_6707_23926"/>
<feBlend mode="normal" in="SourceGraphic" in2="effect1_dropShadow_6707_23926" result="shape"/>
</filter>
</defs>
</svg>
